# xmcd
#
# Track frame offsets:
#	150
#	30305
#	51061
#	78837
#	104287
#	119020
#	137738
#	165906
#	187149
#	210651
#	227406
#
# Disc length: 3385 seconds
#
# Revision: 0
# Processed by: cddbd v1.5.2PL0 Copyright (c) Steve Scherf et al.
# Submitted via: EasyCDDAExtractor 8.2.3.1
#
DISCID=870d370b
DTITLE=JAY JESSE JOHNSON - Strange Imagination
DYEAR=2006
DGENRE=Blues
TTITLE0=Strange Imagination
TTITLE1=Business At Hand
TTITLE2=Can't Give Up On Love
TTITLE3=Waitin' On the Train
TTITLE4=Wicked Little Heartbreaker
TTITLE5=Rockin' Train
TTITLE6=Jump Into the Fire
TTITLE7=Liberty
TTITLE8=Rainbow's End
TTITLE9=Laura Lee
TTITLE10=End Of the Day
EXTD=
EXTT0=
EXTT1=
EXTT2=
EXTT3=
EXTT4=
EXTT5=
EXTT6=
EXTT7=
EXTT8=
EXTT9=
EXTT10=
PLAYORDER=
